<svg id="Capa_1" enable-background="new 0 0 511.502 511.502" height="512" viewBox="0 0 511.502 511.502" width="512" xmlns="http://www.w3.org/2000/svg"><g id="XMLID_132_"><g id="XMLID_276_"><g id="XMLID_277_"><g><path id="XMLID_795_" d="m337.451 171.831 130-27c4.542-.945 9.265.269 12.793 3.281 3.527 3.014 5.462 7.489 5.24 12.123l-8 167c-.383 7.996-6.978 14.282-14.983 14.282-22.29 0-43.165-6.002-62.045-17.838-16.063-10.069-30.346-24.137-42.454-41.81-23.989-35.015-32.5-73.249-32.5-95.353 0-7.107 4.989-13.24 11.949-14.685z" fill="#00a98f"/><path id="XMLID_769_" d="m22.92 161.886c3.188-3.173 7.631-4.755 12.106-4.29l137 14c7.654.782 13.475 7.229 13.475 14.922 0 22.104-8.512 60.338-32.5 95.353-12.108 17.673-26.392 31.74-42.454 41.81-18.88 11.836-39.755 17.838-62.045 17.838-7.721 0-14.181-5.861-14.929-13.546l-15-154c-.437-4.478 1.159-8.915 4.347-12.087z" fill="#00ddc1"/></g></g><g id="XMLID_1605_"><g id="XMLID_1612_"><path id="XMLID_16_" d="m.235 108.437c-1.278-7.153 2.753-14.193 9.57-16.711l240.5-88.813c3.354-1.238 7.039-1.238 10.393 0l240.5 88.813c6.816 2.518 10.848 9.558 9.57 16.711-1.279 7.152-7.5 12.36-14.766 12.36h-481c-7.267.001-13.488-5.207-14.767-12.36z" fill="#a9fff2"/></g><g id="XMLID_1609_"><g id="XMLID_1610_"><path id="XMLID_211_" d="m421.909 494.517c0-10.801.637-49.057 8.837-87.848 3.904-18.468 8.981-34.277 15.09-46.988 3.335-6.939 7.024-13.042 11.049-18.285-46.399-28.237-69.029-77.63-69.029-150.236 0-8.284 6.716-15 15-15h93.646c8.284 0 15 6.716 15 15v303.357c0 8.284-6.716 15-15 15h-59.593c-8.284 0-15-6.715-15-15z" fill="#00eecf"/></g></g><g id="XMLID_1606_"><g id="XMLID_1607_"><path id="XMLID_101_" d="m.002 490.051v-303.357c0-8.284 6.716-15 15-15h93.646c8.284 0 15 6.716 15 15 0 72.606-22.63 121.999-69.029 150.236 4.024 5.243 7.714 11.346 11.049 18.285 6.109 12.711 11.186 28.521 15.09 46.988 8.2 38.791 8.837 77.047 8.837 87.848 0 8.284-6.716 15-15 15h-59.593c-8.285 0-15-6.716-15-15z" fill="#a9fff2"/></g></g></g></g><g id="XMLID_1611_"><path id="XMLID_29_" d="m.002 186.693v-80.896c0-8.284 6.716-15 15-15h481c8.284 0 15 6.716 15 15v80.896c0 8.284-6.716 15-15 15h-481c-8.285 0-15-6.716-15-15z" fill="#00eecf"/></g><g id="XMLID_314_"><path id="XMLID_384_" d="m260.698 2.913 240.5 88.813c6.816 2.518 10.848 9.558 9.57 16.711-1.279 7.152-7.5 12.36-14.766 12.36h-240.5v-118.813c1.759 0 3.519.31 5.196.929z" fill="#00eecf"/></g><g id="XMLID_925_"><path id="XMLID_386_" d="m496.002 90.798c8.284 0 15 6.716 15 15v80.896c0 8.284-6.716 15-15 15h-240.5v-110.896z" fill="#00ddc1"/></g></g></svg>