<svg id="Layer_1" enable-background="new 0 0 512 512" height="512" viewBox="0 0 512 512" width="512" xmlns="http://www.w3.org/2000/svg"><g><path d="m129.892 171.927h-83.816c-24.175 0-43.842 19.667-43.842 43.842 0 24.174 19.667 43.842 43.842 43.842h83.815c24.175 0 43.843-19.667 43.843-43.842 0-24.174-19.668-43.842-43.842-43.842z" fill="#fcef70"/><path d="m129.892 84.243h-83.816c-24.175 0-43.842 19.667-43.842 43.842s19.667 43.842 43.842 43.842h83.815c24.175 0 43.843-19.667 43.843-43.842 0-24.174-19.668-43.842-43.842-43.842z" fill="#ffda2c"/><path d="m508.018 123.969-108.499-117.441c-2.839-3.074-6.833-4.821-11.018-4.821s-8.179 1.748-11.018 4.821l-108.499 117.441c-4.044 4.377-5.113 10.732-2.725 16.192s7.783 8.987 13.742 8.987h29.652v326.129c0 6.513 4.203 12.282 10.402 14.278l62.158 20.017c1.485.479 3.037.722 4.598.722h.038l61.408-.158c8.27-.021 14.962-6.731 14.962-15v-345.988h33.781c5.959 0 11.354-3.527 13.742-8.987s1.32-11.815-2.724-16.192z" fill="#c4e83a"/><path d="m508.018 123.969-108.499-117.441c-2.839-3.074-6.833-4.821-11.018-4.821v508.583l59.758-.153c8.27-.021 14.962-6.731 14.962-15v-345.989h33.779c5.959 0 11.354-3.527 13.742-8.987s1.32-11.815-2.724-16.192z" fill="#90d960"/><path d="m386.813 259.612h-371.813c-8.284 0-15 6.716-15 15v220.294c0 8.284 6.716 15 15 15h371.813c8.284 0 15-6.716 15-15v-220.294c0-8.285-6.716-15-15-15z" fill="#90d960"/><g fill="#61c27c"><path d="m386.813 259.612h-180.438v250.294h180.438c8.284 0 15-6.716 15-15v-220.294c0-8.285-6.716-15-15-15z"/><path d="m75.209 259.612h-60.209c-8.284 0-15 6.716-15 15v54.259c38.624-2.172 69.963-31.536 75.209-69.259z"/><path d="m0 440.647v54.259c0 8.284 6.716 15 15 15h60.209c-5.246-37.723-36.585-67.088-75.209-69.259z"/></g><path d="m401.813 328.87v-54.259c0-8.284-6.716-15-15-15h-60.209c5.245 37.724 36.585 67.088 75.209 69.259z" fill="#04993f"/><path d="m326.604 509.906h60.209c8.284 0 15-6.716 15-15v-54.259c-38.624 2.171-69.964 31.536-75.209 69.259z" fill="#04993f"/><path d="m129.892 171.927h-41.908v87.684h41.907c24.175 0 43.843-19.667 43.843-43.842 0-24.174-19.668-43.842-43.842-43.842z" fill="#ffda2c"/><path d="m129.892 171.927c24.175 0 43.843-19.667 43.843-43.842 0-24.174-19.668-43.842-43.843-43.842h-41.908v87.684z" fill="#febf00"/><circle cx="206.375" cy="383.413" fill="#c4e83a" r="79.122"/><path d="m206.375 304.291v158.244c43.628 0 79.122-35.494 79.122-79.122s-35.494-79.122-79.122-79.122z" fill="#90d960"/></g></svg>