<svg height="464pt" viewBox="0 0 464.0023 464" width="464pt" xmlns="http://www.w3.org/2000/svg"><path d="m368.003906 319.867188c53.019532 0 96-42.980469 96-96 0-53.019532-42.980468-96-96-96-.960937 0-1.839844 0-2.800781.078124 12.933594-54.664062-19.878906-109.71875-74.113281-124.351562-54.234375-14.636719-110.289063 16.441406-126.609375 70.191406-18.492188-17.8125-45.835938-22.859375-69.472657-12.820312-23.632812 10.039062-38.984374 33.222656-39.003906 58.902344-.027344 9.613281 2.132813 19.105468 6.320313 27.757812-41.695313 12.734375-67.789063 54.066406-61.363281 97.183594 6.429687 43.117187 43.445312 75.039062 87.042968 75.058594zm0 0" fill="#00aeef"/><path d="m56.003906 223.867188h80v240h-80zm0 0" fill="#1b75bc"/><path d="m112.003906 423.867188c0 8.835937-7.164062 16-16 16-8.839844 0-16-7.164063-16-16 0-8.835938 7.160156-16 16-16 8.835938 0 16 7.164062 16 16zm0 0" fill="#f1f2f2"/><path d="m382.640625 295.867188h-6.636719c6.667969-.003907 13.03125-2.785157 17.570313-7.671876 4.539062-4.886718 6.835937-11.4375 6.347656-18.089843-1.371094-12.851563-12.355469-22.515625-25.28125-22.238281h-78.636719c-4.417968 0-8-3.582032-8-8v-64c0-17.675782-14.328125-32-32-32h-16v32c0 39.761718-32.238281 72-72 72h-32v192h224c13.253906 0 24-10.746094 24-24 0-13.257813-10.746094-24-24-24h16c6.363282 0 12.464844-2.535157 16.957032-7.042969.203124-.199219.34375-.4375.539062-.644531 4.125-4.4375 6.445312-10.253907 6.503906-16.3125-.128906-13.203126-10.800781-23.875-24-24h8c6.363282 0 12.464844-2.535157 16.957032-7.042969.289062-.292969.503906-.652344.800781-.957031 4.421875-4.816407 6.652343-11.242188 6.160156-17.761719-1.371094-12.851563-12.355469-22.515625-25.28125-22.238281zm0 0" fill="#f1f2f2"/><g fill="#d1d3d4"><path d="m336.003906 343.867188h48c6.363282 0 12.464844-2.535157 16.957032-7.042969.289062-.292969.503906-.652344.800781-.957031h-57.757813c-4.417968 0-8 3.582031-8 8zm0 0"/><path d="m344.003906 383.867188c-4.417968 0-8 3.582031-8 8h40c6.363282 0 12.464844-2.535157 16.957032-7.042969.203124-.199219.351562-.445313.546874-.652344-.492187-.152344-.996093-.253906-1.503906-.304687zm0 0"/><path d="m336.003906 295.867188h40c6.363282 0 12.464844-2.535157 16.957032-7.042969.289062-.292969.503906-.652344.800781-.957031h-49.757813c-4.417968 0-8 3.582031-8 8zm0 0"/></g></svg>